<?xml version="1.0" encoding="utf-8"?>
<!-- Svg Vector Icons : http://www.onlinewebfonts.com/icon -->
<!DOCTYPE svg PUBLIC "-//W3C//DTD SVG 1.1//EN" "http://www.w3.org/Graphics/SVG/1.1/DTD/svg11.dtd">
<svg version="1.1" xmlns="http://www.w3.org/2000/svg" xmlns:xlink="http://www.w3.org/1999/xlink" x="0px" y="0px"
     viewBox="0 0 1000 1000" enable-background="new 0 0 1000 1000" xml:space="preserve">
<metadata> Svg Vector Icons : http://www.onlinewebfonts.com/icon </metadata>
    <g><path d="M359,611.4L209.4,76.8h-46.3H10v44.5h165.6l146.2,522.5l3.5,12h575.6v-44.5H359z"/>
        <path d="M943.8,210.5h-573h-46.2l86,311.8h1.7h490h1.6L990,210.5H943.8z M870,477.7H444.6L383.1,255h548.4L870,477.7z"/>
        <path d="M458.2,745c-49.2,0-89.1,39.9-89.1,89.1c0,49.2,39.9,89.1,89.1,89.1s89.1-39.9,89.1-89.1C547.3,784.9,507.4,745,458.2,745z"/>
        <path d="M770,745c-49.2,0-89.1,39.9-89.1,89.1c0,49.2,39.9,89.1,89.1,89.1s89.1-39.9,89.1-89.1C859.1,784.9,819.3,745,770,745z"/></g>
</svg>